# xmcd
#
# Track frame offsets:
#	150
#	12374
#	22901
#	33955
#	44888
#	56542
#	69283
#	80057
#	91838
#	101237
#
# Disc length: 1506 seconds
#
# Revision: 1
# Processed by: cddbd v1.5.2PL0 Copyright (c) Steve Scherf et al.
# Submitted via: audiograbber 1.83.01
#
DISCID=7b05e00a
DTITLE=George Jones - Take Me
DYEAR=1972
DGENRE=Country
TTITLE0=Take Me
TTITLE1=World Of Forgotten People
TTITLE2=Swinging Doors
TTITLE3=Gonna Take Me Away From You
TTITLE4=My Favorite Lies
TTITLE5=Flowers For Mama
TTITLE6=The Lonely Know My Secret
TTITLE7=From Here To The Door
TTITLE8=Am I That Easy To Forget
TTITLE9=Green, Green Grass Of Home
EXTD=
EXTT0=
EXTT1=
EXTT2=
EXTT3=
EXTT4=
EXTT5=
EXTT6=
EXTT7=
EXTT8=
EXTT9=
PLAYORDER=
